<svg xmlns="http://www.w3.org/2000/svg" width="512" height="512" viewBox="0 0 512 512">
  <defs>
    <linearGradient id="g" x1="0" x2="1" y1="0" y2="1">
      <stop offset="0" stop-color="#6366f1"/>
      <stop offset="1" stop-color="#4f46e5"/>
    </linearGradient>
  </defs>
  <rect x="32" y="32" width="448" height="448" rx="96" ry="96" fill="url(#g)"/>
  <g fill="#ffffff">
    <path d="M256 116c-77 0-140 63-140 140s63 140 140 140c54 0 102-31 125-77h-58c-17 20-41 33-67 33-49 0-88-39-88-88s39-88 88-88c25 0 49 11 65 30h60c-24-45-71-90-125-90z"/>
    <rect x="256" y="232" width="116" height="48" rx="24"/>
  </g>
</svg>

